<?xml version="1.0" encoding="iso-8859-1"?>
<!-- Generator: Adobe Illustrator 19.0.0, SVG Export Plug-In . SVG Version: 6.00 Build 0)  -->
<svg version="1.1" id="Layer_1" xmlns="http://www.w3.org/2000/svg" xmlns:xlink="http://www.w3.org/1999/xlink" x="0px" y="0px"
	 viewBox="0 0 512 512" style="enable-background:new 0 0 512 512;" xml:space="preserve">
<g>
	<g>
		<path d="M190.159,106.895h-38.242c-5.632,0-10.199,4.566-10.199,10.199s4.567,10.199,10.199,10.199h38.242
			c5.632,0,10.199-4.566,10.199-10.199S195.791,106.895,190.159,106.895z"/>
	</g>
</g>
<g>
	<g>
		<path d="M501.801,174.647H342.077v-56.429c0-22.126-18.972-42.139-53.418-56.352c-31.583-13.032-73.356-20.208-117.62-20.208
			c-44.265,0-86.037,7.176-117.621,20.208C18.972,76.079,0,96.092,0,118.218v275.564c0,22.126,18.972,42.139,53.417,56.352
			c31.584,13.032,73.356,20.208,117.62,20.208h330.763c5.632,0,10.199-4.566,10.199-10.199V184.846
			C512,179.213,507.433,174.647,501.801,174.647z M171.038,62.057c88.775,0,150.64,29.598,150.64,56.161
			s-61.862,56.16-150.632,56.161c-0.003,0-0.005,0-0.008,0s-0.006,0-0.009,0c-88.769-0.001-150.63-29.598-150.63-56.161
			S82.264,62.057,171.038,62.057z M321.679,155.511v19.135H288.47c0.062-0.026,0.127-0.05,0.189-0.076
			C302.092,169.027,313.159,162.6,321.679,155.511z M491.602,449.942h-66.849V283.538c0-5.633-4.567-10.199-10.199-10.199
			s-10.199,4.566-10.199,10.199v166.405H262.116v-209.19c0-5.633-4.567-10.199-10.199-10.199c-5.632,0-10.199,4.566-10.199,10.199
			v209.19h-70.68c-25.505,0-48.782-2.447-69.016-6.559V240.753c0-5.633-4.567-10.199-10.199-10.199
			c-5.632,0-10.199,4.566-10.199,10.199v197.647c-38.163-11.054-61.225-28.402-61.225-44.618v-238.27
			c8.518,7.087,19.586,13.515,33.019,19.058c31.027,12.802,71.887,19.948,115.283,20.195l322.902,0.279V449.942z"/>
	</g>
</g>
<g>
	<g>
		<path d="M414.554,230.554c-5.632,0-10.199,4.566-10.199,10.199v7.087c0,5.633,4.567,10.199,10.199,10.199
			s10.199-4.566,10.199-10.199v-7.087C424.753,235.12,420.186,230.554,414.554,230.554z"/>
	</g>
</g>
<g>
</g>
<g>
</g>
<g>
</g>
<g>
</g>
<g>
</g>
<g>
</g>
<g>
</g>
<g>
</g>
<g>
</g>
<g>
</g>
<g>
</g>
<g>
</g>
<g>
</g>
<g>
</g>
<g>
</g>
</svg>
