<?xml version="1.0"?>
<svg xmlns="http://www.w3.org/2000/svg" viewBox="0 0 64 64" width="512" height="512"><g id="drum"><path d="M50,40A18,18,0,1,0,21.391,54.508l-4.15,4.842,1.518,1.3,4.319-5.038a17.861,17.861,0,0,0,17.844,0l4.319,5.038,1.518-1.3-4.15-4.842A17.967,17.967,0,0,0,50,40ZM16,40A16,16,0,1,1,32,56,16.019,16.019,0,0,1,16,40Z"/><path d="M32,26A14,14,0,1,0,46,40,14.015,14.015,0,0,0,32,26Zm0,26A12,12,0,1,1,44,40,12.013,12.013,0,0,1,32,52Z"/><path d="M28,42.184A2.966,2.966,0,0,0,27,42a3,3,0,1,0,3,3V36h6v4.184A2.966,2.966,0,0,0,35,40a3,3,0,1,0,3,3V34H28ZM35,44a1,1,0,1,1,1-1A1,1,0,0,1,35,44Zm-8,2a1,1,0,1,1,1-1A1,1,0,0,1,27,46Z"/><path d="M60,38.184V14.589c.1-.1.2-.19.3-.287,1.859-1.86,3.557-4.5,2.228-5.832S58.56,8.838,56.7,10.7s-3.557,4.5-2.228,5.832a1.635,1.635,0,0,0,1.2.474A4.7,4.7,0,0,0,58,16.167V38H54V26.589c.1-.1.2-.19.3-.287,1.859-1.86,3.557-4.5,2.228-5.832s-3.97.368-5.832,2.228-3.557,4.5-2.228,5.832a1.635,1.635,0,0,0,1.2.474A4.7,4.7,0,0,0,52,28.167V38.184A3,3,0,0,0,50,41v4a3,3,0,0,0,1.784,2.737,5.981,5.981,0,0,0,.6,9.039L50.231,59.36l1.538,1.28L54.2,57.723a6,6,0,0,0,3.6,0l2.429,2.917,1.538-1.28-2.152-2.584a5.981,5.981,0,0,0,.6-9.039A3,3,0,0,0,62,45V41A3,3,0,0,0,60,38.184ZM58.112,12.112A9.013,9.013,0,0,1,60.9,10.1a9.013,9.013,0,0,1-2.013,2.789A9.013,9.013,0,0,1,56.1,14.9,9.013,9.013,0,0,1,58.112,12.112Zm-6,12A9.013,9.013,0,0,1,54.9,22.1a9.013,9.013,0,0,1-2.013,2.789A9.013,9.013,0,0,1,50.1,26.9,9.013,9.013,0,0,1,52.112,24.112ZM56,56a4,4,0,1,1,4-4A4,4,0,0,1,56,56ZM53,46a1,1,0,0,1-1-1V41a1,1,0,0,1,1-1h6a1,1,0,0,1,1,1v4a1,1,0,0,1-1,1Z"/><path d="M40.7,22.3c1.4,1.4,3.237,2.7,4.628,2.7a1.635,1.635,0,0,0,1.2-.474c1.329-1.329-.369-3.972-2.228-5.832s-4.5-3.556-5.832-2.228S38.839,20.442,40.7,22.3Zm2.19-2.19A9.013,9.013,0,0,1,44.9,22.9a9.013,9.013,0,0,1-2.789-2.013A9.013,9.013,0,0,1,40.1,18.1,9.013,9.013,0,0,1,42.888,20.112Z"/><path d="M18.674,25c1.391,0,3.231-1.306,4.628-2.7,1.859-1.86,3.557-4.5,2.228-5.832s-3.97.368-5.832,2.228-3.557,4.5-2.228,5.832A1.635,1.635,0,0,0,18.674,25Zm2.438-4.892A9.013,9.013,0,0,1,23.9,18.1a9.013,9.013,0,0,1-2.013,2.789A9.013,9.013,0,0,1,19.1,22.9,9.013,9.013,0,0,1,21.112,20.112Z"/><path d="M12,38.184V28.167A4.7,4.7,0,0,0,14.326,29a1.635,1.635,0,0,0,1.2-.474c1.329-1.329-.369-3.972-2.228-5.832S8.8,19.141,7.47,20.47,7.839,24.442,9.7,26.3c.1.1.2.191.3.287V38H6V16.167A4.7,4.7,0,0,0,8.326,17a1.635,1.635,0,0,0,1.2-.474C10.859,15.2,9.161,12.558,7.3,10.7S2.8,7.143,1.47,8.47,1.839,12.442,3.7,14.3c.1.1.2.191.3.287v23.6A3,3,0,0,0,2,41v4a3,3,0,0,0,1.784,2.737,5.981,5.981,0,0,0,.6,9.039L2.231,59.36l1.538,1.28L6.2,57.723a6,6,0,0,0,3.6,0l2.429,2.917,1.538-1.28-2.152-2.584a5.981,5.981,0,0,0,.6-9.039A3,3,0,0,0,14,45V41A3,3,0,0,0,12,38.184ZM9.1,22.1a9.013,9.013,0,0,1,2.789,2.013A9.013,9.013,0,0,1,13.9,26.9a9.013,9.013,0,0,1-2.789-2.013A9.013,9.013,0,0,1,9.1,22.1Zm-6-12a9.013,9.013,0,0,1,2.789,2.013A9.013,9.013,0,0,1,7.9,14.9a9.013,9.013,0,0,1-2.789-2.013A9.013,9.013,0,0,1,3.1,10.1ZM8,56a4,4,0,1,1,4-4A4,4,0,0,1,8,56ZM5,46a1,1,0,0,1-1-1V41a1,1,0,0,1,1-1h6a1,1,0,0,1,1,1v4a1,1,0,0,1-1,1Z"/><polygon points="29.051 12.535 30.465 13.949 32 12.414 33.535 13.949 34.949 12.535 33.414 11 38.949 5.465 37.535 4.051 32 9.586 26.465 4.051 25.051 5.465 30.586 11 29.051 12.535"/></g></svg>
