<svg height="512pt" viewBox="0 0 512 512" width="512pt" xmlns="http://www.w3.org/2000/svg"><path d="m266.578125 372.476562c0-4.144531-3.359375-7.5-7.5-7.5h-79.652344c-4.144531 0-7.5 3.355469-7.5 7.5 0 4.144532 3.355469 7.503907 7.5 7.503907h79.652344c4.140625 0 7.5-3.359375 7.5-7.503907zm0 0"/><path d="m338.730469 379.980469c4.140625 0 7.5-3.359375 7.5-7.503907 0-4.144531-3.359375-7.5-7.5-7.5h-30.839844c-4.144531 0-7.5 3.355469-7.5 7.5 0 4.144532 3.355469 7.503907 7.5 7.503907zm0 0"/><path d="m456.472656 364.976562h-72.722656c-4.144531 0-7.503906 3.355469-7.503906 7.5 0 4.144532 3.359375 7.503907 7.503906 7.503907h72.722656c4.144532 0 7.503906-3.359375 7.503906-7.503907 0-4.144531-3.359374-7.5-7.503906-7.5zm0 0"/><path d="m179.425781 414.566406h50.785157c4.140624 0 7.5-3.359375 7.5-7.5 0-4.144531-3.359376-7.503906-7.5-7.503906h-50.785157c-4.144531 0-7.5 3.359375-7.5 7.503906 0 4.140625 3.355469 7.5 7.5 7.5zm0 0"/><path d="m265.707031 414.566406h92.070313c4.140625 0 7.5-3.359375 7.5-7.5 0-4.144531-3.359375-7.503906-7.5-7.503906h-92.070313c-4.144531 0-7.5 3.359375-7.5 7.503906 0 4.140625 3.355469 7.5 7.5 7.5zm0 0"/><path d="m456.472656 399.5625h-56.027344c-4.144531 0-7.503906 3.359375-7.503906 7.503906 0 4.140625 3.359375 7.5 7.503906 7.5h56.027344c4.144532 0 7.503906-3.359375 7.503906-7.5 0-4.144531-3.359374-7.503906-7.503906-7.503906zm0 0"/><path d="m179.425781 449.992188h64.347657c4.140624 0 7.5-3.359376 7.5-7.503907 0-4.140625-3.359376-7.5-7.5-7.5h-64.347657c-4.144531 0-7.5 3.359375-7.5 7.5 0 4.144531 3.355469 7.503907 7.5 7.503907zm0 0"/><path d="m284.882812 449.992188h109.03125c4.144532 0 7.503907-3.359376 7.503907-7.503907 0-4.140625-3.359375-7.5-7.503907-7.5h-109.03125c-4.140624 0-7.5 3.359375-7.5 7.5 0 4.144531 3.355469 7.503907 7.5 7.503907zm0 0"/><path d="m456.472656 434.988281h-25.023437c-4.140625 0-7.5 3.359375-7.5 7.5 0 4.144531 3.359375 7.503907 7.5 7.503907h25.023437c4.144532 0 7.503906-3.359376 7.503906-7.503907 0-4.140625-3.359374-7.5-7.503906-7.5zm0 0"/><path d="m471.976562 323.46875v-111.019531c0-9.652344-7.851562-17.503907-17.503906-17.503907h-286.152344c-4.144531 0-7.503906 3.359376-7.503906 7.503907 0 4.140625 3.359375 7.5 7.503906 7.5h286.152344c1.378906 0 2.5 1.121093 2.5 2.5v111.019531c0 1.378906-1.121094 2.5-2.5 2.5h-398.070312c-1.375 0-2.5-1.121094-2.5-2.5v-111.019531c0-1.378907 1.125-2.5 2.5-2.5h65.242187c4.144531 0 7.5-3.359375 7.5-7.5 0-4.144531-3.355469-7.503907-7.5-7.503907h-65.242187c-9.648438 0-17.5 7.851563-17.5 17.503907v111.019531c0 9.652344 7.851562 17.503906 17.5 17.503906h398.070312c9.652344 0 17.503906-7.851562 17.503906-17.503906zm0 0"/><path d="m43.902344 406.984375c0 29.230469 23.78125 53.007813 53.007812 53.007813 29.230469 0 53.011719-23.777344 53.011719-53.007813s-23.78125-53.011719-53.011719-53.011719c-29.226562 0-53.007812 23.78125-53.007812 53.011719zm91.015625 0c0 20.957031-17.050781 38.003906-38.007813 38.003906-20.957031 0-38.003906-17.046875-38.003906-38.003906s17.046875-38.007813 38.003906-38.007813c20.957032 0 38.007813 17.050782 38.007813 38.007813zm0 0"/><path d="m54.769531 28.792969c-12.140625 0-22.015625 9.875-22.015625 22.015625 0 12.136718 9.875 22.011718 22.015625 22.011718 12.136719 0 22.011719-9.875 22.011719-22.011718 0-12.140625-9.875-22.015625-22.011719-22.015625zm0 29.023437c-3.867187 0-7.011719-3.144531-7.011719-7.007812 0-3.867188 3.144532-7.011719 7.011719-7.011719 3.863281 0 7.011719 3.144531 7.011719 7.011719 0 3.863281-3.148438 7.007812-7.011719 7.007812zm0 0"/><path d="m110.816406 28.792969c-12.140625 0-22.015625 9.875-22.015625 22.015625 0 12.136718 9.878907 22.011718 22.015625 22.011718 12.136719 0 22.011719-9.875 22.011719-22.011718 0-12.140625-9.875-22.015625-22.011719-22.015625zm0 29.023437c-3.867187 0-7.011718-3.144531-7.011718-7.007812 0-3.867188 3.144531-7.011719 7.011718-7.011719 3.863282 0 7.011719 3.144531 7.011719 7.011719 0 3.863281-3.148437 7.007812-7.011719 7.007812zm0 0"/><path d="m166.863281 28.792969c-12.140625 0-22.015625 9.875-22.015625 22.015625 0 12.136718 9.875 22.011718 22.015625 22.011718 12.136719 0 22.011719-9.875 22.011719-22.011718 0-12.140625-9.875-22.015625-22.011719-22.015625zm0 29.023437c-3.867187 0-7.011719-3.144531-7.011719-7.007812 0-3.867188 3.144532-7.011719 7.011719-7.011719 3.863281 0 7.011719 3.144531 7.011719 7.011719 0 3.863281-3.144531 7.007812-7.011719 7.007812zm0 0"/><path d="m478.984375 0h-445.972656c-18.203125 0-33.011719 14.808594-33.011719 33.011719v445.972656c0 18.203125 14.808594 33.015625 33.011719 33.015625h445.972656c18.203125 0 33.015625-14.8125 33.015625-33.015625v-122.46875c0-4.144531-3.359375-7.5-7.503906-7.5-4.140625 0-7.5 3.355469-7.5 7.5v122.46875c0 9.933594-8.078125 18.011719-18.011719 18.011719h-445.972656c-9.929688 0-18.007813-8.078125-18.007813-18.011719v-376.945313h481.992188v206.96875c0 4.144532 3.359375 7.503907 7.503906 7.503907 4.140625 0 7.5-3.359375 7.5-7.503907v-275.996093c0-18.203125-14.808594-33.011719-33.015625-33.011719zm18.011719 87.035156h-481.992188v-54.023437c0-9.929688 8.078125-18.007813 18.007813-18.007813h445.972656c9.933594 0 18.011719 8.078125 18.011719 18.007813zm0 0"/><path d="m471.976562 129.839844c0-8.21875-6.6875-14.90625-14.90625-14.90625h-189.226562c-8.21875 0-14.90625 6.6875-14.90625 14.90625v34.195312c0 8.222656 6.6875 14.910156 14.90625 14.910156h189.226562c8.21875 0 14.90625-6.691406 14.90625-14.910156zm-70.011718 34.101562h-134.023438v-34.007812h134.023438zm55.007812 0h-40.003906v-34.007812h40.003906zm0 0"/></svg>