<?xml version="1.0" encoding="iso-8859-1"?>
<!-- Generator: Adobe Illustrator 19.0.0, SVG Export Plug-In . SVG Version: 6.00 Build 0)  -->
<svg version="1.1" id="Layer_1" xmlns="http://www.w3.org/2000/svg" xmlns:xlink="http://www.w3.org/1999/xlink" x="0px" y="0px"
	 viewBox="0 0 512 512" style="enable-background:new 0 0 512 512;" xml:space="preserve">
<g>
	<g>
		<path d="M256,0C114.615,0,0,114.615,0,256s114.615,256,256,256s256-114.615,256-256S397.385,0,256,0z M256,494.933
			C124.041,494.933,17.067,387.959,17.067,256S124.041,17.067,256,17.067S494.933,124.041,494.933,256S387.959,494.933,256,494.933z
			"/>
	</g>
</g>
<g>
	<g>
		<path d="M228.608,354.645c-34.515-9.762-61.491-36.738-71.253-71.253c-3.036-11.122-13.132-18.843-24.661-18.859H62.805
			c-7.57-0.008-14.756,3.335-19.627,9.131c-4.779,5.71-6.835,13.217-5.632,20.565C53.495,386.374,125.508,458.626,217.6,474.88
			c1.42,0.122,2.847,0.122,4.267,0c5.992-0.012,11.79-2.126,16.384-5.973c5.851-4.873,9.228-12.098,9.216-19.712v-69.888
			C247.451,367.777,239.73,357.681,228.608,354.645z M230.4,449.109c0.03,2.568-1.099,5.013-3.072,6.656
			c-1.854,1.537-4.272,2.219-6.656,1.877c-84.919-14.904-151.411-81.395-166.315-166.315c-0.365-2.372,0.285-4.788,1.792-6.656
			c1.643-1.973,4.088-3.102,6.656-3.072l69.547-0.341c3.992-0.126,7.537,2.533,8.533,6.4c11.381,40.265,42.85,71.733,83.115,83.115
			c3.867,0.996,6.526,4.542,6.4,8.533V449.109z"/>
	</g>
</g>
<g>
	<g>
		<path d="M159.403,352.512c-13.753-13.74-24.454-30.227-31.403-48.384c-1.832-3.273-5.587-4.967-9.253-4.173
			c-4.606,0.998-7.531,5.54-6.534,10.146c7.83,20.398,19.867,38.919,35.328,54.357c1.61,1.597,3.791,2.488,6.059,2.475
			c2.068-0.089,4.033-0.926,5.53-2.356C162.537,361.321,162.659,355.919,159.403,352.512z"/>
	</g>
</g>
<g>
	<g>
		<path d="M395.52,299.008c-4.406-1.673-9.335,0.543-11.008,4.949c-6.949,18.157-17.649,34.643-31.403,48.384
			c-1.628,1.614-2.537,3.816-2.524,6.108c0.027,4.713,3.87,8.511,8.583,8.484c2.251-0.032,4.398-0.952,5.973-2.56
			c15.461-15.439,27.498-33.959,35.328-54.357C402.142,305.61,399.927,300.681,395.52,299.008z"/>
	</g>
</g>
<g>
	<g>
		<path d="M238.251,43.179c-5.677-4.842-13.214-6.906-20.565-5.632C125.681,53.669,53.627,125.688,37.461,217.685
			c-1.203,7.348,0.853,14.855,5.632,20.565c4.873,5.851,12.098,9.228,19.712,9.216h69.888c11.529-0.016,21.625-7.736,24.661-18.859
			c9.762-34.515,36.738-61.491,71.253-71.253c11.122-3.036,18.843-13.132,18.859-24.661V62.805
			C247.454,55.221,244.078,48.033,238.251,43.179z M230.741,132.352c0.126,3.992-2.533,7.537-6.4,8.533
			c-40.265,11.381-71.733,42.85-83.115,83.115c-0.996,3.867-4.542,6.526-8.533,6.4H62.805c-2.568,0.03-5.013-1.099-6.656-3.072
			c-1.507-1.868-2.157-4.284-1.792-6.656c14.817-84.935,81.24-151.494,166.144-166.485h1.365c2.11-0.086,4.178,0.613,5.803,1.963
			c1.973,1.643,3.102,4.088,3.072,6.656V132.352z"/>
	</g>
</g>
<g>
	<g>
		<path d="M213.303,81.215c-1.647-4.416-6.562-6.659-10.978-5.012c-26.508,8.089-50.919,21.897-71.509,40.448
			c-1.774,1.612-2.787,3.896-2.794,6.292c-0.012,4.713,3.798,8.543,8.511,8.555c2.115-0.005,4.152-0.796,5.717-2.219
			c18.726-16.865,40.921-29.42,65.024-36.779c0.345-0.082,0.684-0.185,1.017-0.309C212.707,90.545,214.951,85.63,213.303,81.215z"/>
	</g>
</g>
<g>
	<g>
		<path d="M381.184,116.651c-20.591-18.551-45.001-32.359-71.509-40.448c-0.332-0.124-0.672-0.227-1.017-0.309
			c-4.586-1.086-9.184,1.751-10.27,6.337s1.751,9.184,6.337,10.27c24.103,7.359,46.298,19.913,65.024,36.779
			c1.565,1.422,3.602,2.213,5.717,2.219c2.397-0.006,4.68-1.02,6.293-2.794C384.929,125.217,384.672,119.821,381.184,116.651z"/>
	</g>
</g>
<g>
	<g>
		<path d="M474.453,217.771c-16.09-92.038-88.116-164.132-180.139-180.309c-7.352-1.274-14.889,0.79-20.565,5.632
			c-5.851,4.873-9.228,12.098-9.216,19.712v69.888c0.016,11.529,7.736,21.625,18.859,24.661
			c34.515,9.762,61.491,36.738,71.253,71.253c3.036,11.122,13.132,18.843,24.661,18.859h69.888
			c7.57,0.008,14.756-3.335,19.627-9.131C473.6,232.626,475.656,225.119,474.453,217.771z M456.448,227.669
			c-1.643,1.973-4.088,3.102-6.656,3.072h-69.888c-3.992,0.126-7.537-2.533-8.533-6.4c-11.381-40.264-42.85-71.733-83.115-83.115
			c-3.867-0.996-6.526-4.542-6.4-8.533V62.805c-0.03-2.568,1.099-5.013,3.072-6.656c1.467-1.217,3.3-1.908,5.205-1.963l1.195,0.171
			c85.253,14.721,152.06,81.425,166.912,166.656C458.605,223.385,457.955,225.801,456.448,227.669z"/>
	</g>
</g>
<g>
	<g>
		<path d="M468.907,273.749c-4.873-5.851-12.098-9.228-19.712-9.216h-69.888c-11.529,0.016-21.625,7.736-24.661,18.859
			c-9.762,34.515-36.738,61.491-71.253,71.253c-11.122,3.036-18.843,13.132-18.859,24.661v69.888
			c0.009,7.628,3.419,14.855,9.301,19.712c4.571,3.829,10.336,5.941,16.299,5.973c1.403-0.024,2.802-0.167,4.181-0.427
			c92.005-16.122,164.058-88.142,180.224-180.139C475.741,286.967,473.685,279.459,468.907,273.749z M457.643,291.328
			c-14.786,85.187-81.477,151.912-166.656,166.741c-2.388,0.412-4.835-0.278-6.656-1.877c-1.973-1.643-3.102-4.088-3.072-6.656
			v-69.888c-0.126-3.992,2.533-7.537,6.4-8.533c40.265-11.381,71.733-42.85,83.115-83.115c0.996-3.867,4.542-6.526,8.533-6.4h69.888
			c2.568-0.03,5.013,1.099,6.656,3.072C457.357,286.54,458.008,288.956,457.643,291.328z"/>
	</g>
</g>
<g>
	<g>
		<path d="M256,170.667c-47.128,0-85.333,38.205-85.333,85.333s38.205,85.333,85.333,85.333s85.333-38.205,85.333-85.333
			S303.128,170.667,256,170.667z M256,324.267c-37.703,0-68.267-30.564-68.267-68.267s30.564-68.267,68.267-68.267
			s68.267,30.564,68.267,68.267S293.703,324.267,256,324.267z"/>
	</g>
</g>
<g>
	<g>
		<path d="M324.267,221.867H187.733c-4.713,0-8.533,3.82-8.533,8.533s3.82,8.533,8.533,8.533h136.533
			c4.713,0,8.533-3.82,8.533-8.533S328.979,221.867,324.267,221.867z"/>
	</g>
</g>
<g>
	<g>
		<circle cx="221.867" cy="264.533" r="8.533"/>
	</g>
</g>
<g>
	<g>
		<path d="M262.059,258.475c-2.454-2.421-6.124-3.128-9.301-1.792c-1.047,0.406-2.004,1.015-2.816,1.792
			c-1.559,1.635-2.443,3.799-2.475,6.059c-0.013,2.268,0.877,4.448,2.475,6.059c0.848,0.752,1.796,1.383,2.816,1.877
			c1.032,0.408,2.133,0.611,3.243,0.597c4.713,0,8.533-3.82,8.533-8.533C264.502,262.274,263.618,260.11,262.059,258.475z"/>
	</g>
</g>
<g>
	<g>
		<circle cx="290.133" cy="264.533" r="8.533"/>
	</g>
</g>
<g>
	<g>
		<path d="M273.067,290.133h-34.133c-4.713,0-8.533,3.82-8.533,8.533s3.82,8.533,8.533,8.533h34.133c4.713,0,8.533-3.82,8.533-8.533
			S277.779,290.133,273.067,290.133z"/>
	</g>
</g>
<g>
</g>
<g>
</g>
<g>
</g>
<g>
</g>
<g>
</g>
<g>
</g>
<g>
</g>
<g>
</g>
<g>
</g>
<g>
</g>
<g>
</g>
<g>
</g>
<g>
</g>
<g>
</g>
<g>
</g>
</svg>
